# AST/ASF file generated using VICON BodyLanguage
# -----------------------------------------------
:version 1.10
:name VICON
:units
  mass 1.0
  length 0.45
  angle deg
:documentation
   .ast/.asf automatically generated from VICON data using
   VICON BodyBuilder and BodyLanguage model FoxedUp or BRILLIANT.MOD
:root
   order TX TY TZ RX RY RZ
   axis XYZ
   position 0 0 0  
   orientation 0 0 0 
:bonedata
  begin
     id 1 
     name lhipjoint
     direction 0.576517 -0.752066 0.319413 
     length 2.45433 
     axis 0 0 0  XYZ
  end
  begin
     id 2 
     name lfemur
     direction 0.34202 -0.939693 0  
     length 7.54459  
     axis 0 0 20  XYZ
    dof rx ry rz
    limits (-160.0 20.0)
           (-70.0 70.0)
           (-60.0 70.0)
  end
  begin
     id 3 
     name ltibia
     direction 0.34202 -0.939693 0   
     length 7.73986   
     axis 0 0 20   XYZ
    dof rx
    limits (-10.0 170.0)
  end
  begin
     id 4 
     name lfoot
     direction 0.090693 -0.249177 0.964202   
     length 2.28437   
     axis -90 7.62852e-016 20   XYZ
    dof rx rz
    limits (-45.0 90.0)
           (-70.0 20.0)
  end
  begin
     id 5 
     name ltoes
     direction 1.5356e-011 -4.21928e-011 1   
     length 1.14243   
     axis -90 7.62852e-016 20   XYZ
    dof rx
    limits (-90.0 20.0)
  end
  begin
     id 6 
     name rhipjoint
     direction -0.573937 -0.753736 0.320122   
     length 2.44889  
     axis 0 0 0  XYZ 
  end
  begin
     id 7 
     name rfemur
     direction -0.34202 -0.939693 0   
     length 7.50166   
     axis 0 0 -20   XYZ
    dof rx ry rz
    limits (-160.0 20.0)
           (-70.0 70.0)
           (-70.0 60.0)
  end
  begin
     id 8 
     name rtibia
     direction -0.34202 -0.939693 0   
     length 7.54266   
     axis 0 0 -20   XYZ
    dof rx
    limits (-10.0 170.0)
 end
 begin
     id 9 
     name rfoot
     direction -0.114017 -0.31326 0.942798   
     length 2.34212  
     axis -90 -7.62852e-016 -20   XYZ
    dof rx rz
    limits (-45.0 90.0)
           (-20.0 70.0)
  end
  begin
     id 10 
     name rtoes
     direction -1.53557e-011 -4.21867e-011 1   
     length 1.16246   
     axis -90 -7.62852e-016 -20   XYZ
    dof rx
    limits (-90.0 20.0)
  end
  begin
     id 11 
     name lowerback
     direction -0.0228371 0.999155 -0.034167   
     length 2.0537   
     axis 0 0 0   XYZ
    dof rx ry rz
    limits (-20.0 45.0)
           (-30.0 30.0)
           (-30.0 30.0)
  end
  begin
     id 12 
     name upperback
     direction 0.0198981 0.999794 0.00389455   
     length 2.05302   
     axis 0 0 0   XYZ
    dof rx ry rz
    limits (-20.0 45.0)
           (-30.0 30.0)
           (-30.0 30.0)
  end
  begin
     id 13 
     name thorax
     direction 0.0304566 0.99935 0.0192987   
     length 2.05315   
     axis 0 0 0   XYZ
    dof rx ry rz
    limits (-20.0 45.0)
           (-30.0 30.0)
           (-30.0 30.0)
  end
  begin
     id 14 
     name lowerneck
     direction -0.0196762 0.99417 0.106017   
     length 1.82056   
     axis 0 0 0   XYZ
    dof rx ry rz
    limits (-20.0 45.0)
           (-30.0 30.0)
           (-30.0 30.0)
  end
  begin
     id 15 
     name upperneck
     direction 0.00517787 0.9802 -0.197944   
     length 1.83835   
     axis 0 0 0   XYZ
    dof rx ry rz
    limits (-20.0 45.0)
           (-30.0 30.0)
           (-30.0 30.0)
  end
  begin
     id 16
     name head
     direction 0.00211419 0.996945 -0.078081  
     length 1.85629  
     axis 0 0 0   XYZ
    dof rx ry rz
    limits (-20.0 45.0)
           (-30.0 30.0)
           (-30.0 30.0)
  end
  begin
     id 17 
     name lclavicle
     direction 0.930001 0.365811 -0.0357824  
     length 3.81961  
     axis 0 0 0   XYZ
    dof ry rz
    limits (-20.0 10.0)
           (0.0 20.0)
  end
  begin
     id 18 
     name lhumerus
     direction 1 -4.48968e-011 -3.06644e-027   
     length 5.14507   
     axis 180 -30 -90   XYZ
    dof rx ry rz
    limits (-60.0 90.0)
           (-90.0 90.0)
           (-90.0 90.0)
  end
  begin
     id 19
     name lradius
     direction 1 -4.48965e-011 9.06925e-028   
     length 3.50646   
     axis 180 -30 -90   XYZ
    dof rx
    limits (-10.0 170.0)
  end
  begin
     id 20
     name lwrist
     direction 1 -4.48957e-011 1.03922e-027   
     length 1.75323   
     axis -2.56395e-016 90 90   XYZ
    dof ry
    limits (-180.0 0.0)
 end
  begin
     id 21 
     name lhand
     direction 1 -4.48967e-011 2.08017e-027   
     length 0.629969   
     axis -1.32723e-015 90 90   XYZ
    dof rx rz
    limits (-90.0 90.0)
           (-45.0 45.0)
  end
  begin
     id 22 
     name lfingers
     direction 1 -4.49089e-011 4.20095e-027   
     length 0.507897   
     axis -2.6545e-015 90 90   XYZ
    dof rx
    limits (0.0 90.0)
  end
  begin
     id 23
     name lthumb
     direction 0.707107 -6.35001e-011 0.707107   
     length 0.729241   
     axis -90 45 5.05613e-014   XYZ
    dof rx rz
    limits (-45.0 45.0)
           (-45.0 45.0)
  end
  begin
     id 24 
     name rclavicle
     direction -0.881882 0.464123 -0.0829113   
     length 3.47515  
     axis 0 0 0   XYZ 
    dof ry rz
    limits (-10.0 20.0)
           (-20.0 0.0)
  end
  begin
     id 25 
     name rhumerus
     direction -1 -4.48961e-011 -1.55672e-027  
     length 5.232   
     axis 180 30 90   XYZ
    dof rx ry rz
    limits (-90.0 60.0)
           (-90.0 90.0)
           (-90.0 90.0)
  end
  begin
     id 26 
     name rradius
     direction -1 -4.48963e-011 6.18178e-029   
     length 3.65641   
     axis 180 30 90   XYZ
    dof rx
    limits (-10.0 170.0)
  end
  begin
     id 27 
     name rwrist
     direction -1 -4.48982e-011 1.04136e-027   
     length 1.8282   
     axis -2.56395e-016 -90 -90   XYZ
    dof ry
    limits (-180.0 0.0)
  end
  begin
     id 28
     name rhand
     direction -1 -4.48929e-011 2.07378e-027   
     length 0.656807   
     axis -1.32723e-015 -90 -90   XYZ
    dof rx rz
    limits (-90.0 90.0)
           (-45.0 45.0)
  end
  begin
     id 29
     name rfingers
     direction -1 -4.489e-011 4.13816e-027   
     length 0.529535   
     axis -2.6545e-015 -90 -90   XYZ
    dof rx
    limits (0.0 90.0)
  end
  begin
     id 30
     name rthumb
     direction -0.707107 -6.34843e-011 0.707107   
     length 0.760309   
     axis -90 -45 -5.05613e-014   XYZ
    dof rx rz
    limits (-45.0 45.0)
           (-45.0 45.0)
  end
:hierarchy
  begin
    root lhipjoint rhipjoint lowerback
    lhipjoint lfemur
    lfemur ltibia
    ltibia lfoot
    lfoot ltoes
    rhipjoint rfemur
    rfemur rtibia
    rtibia rfoot
    rfoot rtoes
    lowerback upperback
    upperback thorax
    thorax lowerneck lclavicle rclavicle
    lowerneck upperneck
    upperneck head
    lclavicle lhumerus
    lhumerus lradius
    lradius lwrist
    lwrist lhand lthumb
    lhand lfingers
    rclavicle rhumerus
    rhumerus rradius
    rradius rwrist
    rwrist rhand rthumb
    rhand rfingers
  end

#!OML:ASF H:\ManfredETheater\Project 1\Capture day 1\Session 1\subject.ASF
:FULLY-SPECIFIED
:DEGREES
1
root 19.2594 14.4365 42.4088 -148.043 -17.8147 -175.868
lowerback 18.1511 1.76742 3.59695
upperback -0.863596 3.04174 -0.0605728
thorax -10.9797 1.18781 -2.92862
lowerneck -19.0646 -1.68477 -1.14179
upperneck -5.09222 -2.95859 0.284958
head 1.60456 -1.86767 0.0691442
rclavicle 5.1684e-014 -7.35503e-015
rhumerus -25.9442 18.1469 -81.7434
rradius 106.077
rwrist 2.64163
rhand -21.4365 -4.62201
rfingers 7.12502
rthumb 4.9529 -34.5441
lclavicle 5.1684e-014 -7.35503e-015
lhumerus -77.6138 -13.5757 86.5696
lradius 88.5464
lwrist 14.2169
lhand -29.2122 -13.9916
lfingers 7.12502
lthumb -2.55667 15.9728
rfemur -9.37574 2.42941 23.3925
rtibia 47.5495
rfoot 14.585 -4.17834
rtoes -40.8005
lfemur -85.6289 3.5036 -22.7767
ltibia 78.1878
lfoot -24.1176 -0.322992
ltoes 7.05981
2
root 19.1398 14.5113 42.0182 -148.309 -19.4579 -177.487
lowerback 19.3281 1.01866 3.60219
upperback -0.423218 2.04239 -0.180399
thorax -11.2202 0.697881 -2.82551
lowerneck -18.9587 -1.71795 -1.38693
upperneck -5.72927 -3.0207 0.2163
head 1.37084 -1.92556 0.0922793
rclavicle -4.17448e-015 1.2921e-014
rhumerus -27.6191 17.5708 -82.4956
rradius 104.223
rwrist 1.74875
rhand -22.2572 -4.94883
rfingers 7.12502
rthumb 4.16044 -34.8879
lclavicle -4.17448e-015 1.2921e-014
lhumerus -74.6821 -12.8625 86.7362
lradius 87.6489
lwrist 15.1766
lhand -29.781 -13.4154
lfingers 7.12502
lthumb -3.106 16.5417
rfemur -11.1045 0.584907 22.4666
rtibia 52.7473
rfoot 12.0028 -5.49558
rtoes -41.0574
lfemur -82.7265 1.87648 -23.5812
ltibia 77.847
lfoot -25.221 -0.848185
ltoes 7.44469
3
root 19.0526 14.5618 41.6384 -148.132 -19.611 -178.541
lowerback 20.2057 0.911941 2.54541
upperback -0.316803 1.65415 -0.324235
thorax -11.6503 0.557841 -2.29484
lowerneck -19.0354 -1.67774 -1.40309
upperneck -5.9756 -2.99885 0.0735905
head 1.29712 -1.9339 0.0520842
rclavicle 7.69297e-014 -3.99557e-014
rhumerus -29.552 16.8188 -83.4782
rradius 102.149
rwrist 1.11397
rhand -22.8234 -5.42766
rfingers 7.12502
rthumb 3.61362 -35.3768
lclavicle 7.69297e-014 -3.99557e-014
lhumerus -71.8789 -11.9113 86.8529
lradius 86.6197
lwrist 15.6372
lhand -29.8915 -13.1571
lfingers 7.12502
lthumb -3.21272 16.7984
rfemur -13.7137 0.152718 21.2016
rtibia 58.1854
rfoot 9.40787 -7.22777
rtoes -38.6908
lfemur -80.6797 1.84065 -24.6995
ltibia 77.6826
lfoot -26.4587 -0.899035
ltoes 7.17168
4
root 18.9594 14.6028 41.2582 -147.749 -19.9483 -179.777
lowerback 20.5378 0.760069 1.53372
upperback -0.0666762 1.18637 -0.423308
thorax -11.598 0.391337 -1.69088
lowerneck -18.9507 -1.64117 -1.49465
upperneck -6.47071 -2.98935 -0.0268147
head 1.11374 -1.95285 0.0423407
rclavicle 6.75868e-015 -2.14687e-014
rhumerus -31.1249 15.7464 -84.2373
rradius 99.6496
rwrist 0.299195
rhand -23.3363 -5.64949
rfingers 7.12502
rthumb 3.11837 -35.6064
lclavicle 6.75868e-015 -2.14687e-014
lhumerus -68.5785 -10.8828 87.0733
lradius 85.3086
lwrist 15.763
lhand -29.7141 -12.9559
lfingers 7.12502
lthumb -3.04137 17.0021
rfemur -16.6244 -0.77104 19.8284
rtibia 63.2156
rfoot 6.58198 -8.90581
rtoes -37.5773
lfemur -78.6697 1.58047 -25.9035
ltibia 77.4823
lfoot -27.6596 -0.939754
ltoes 6.81106
5
root 18.8519 14.652 40.866 -147.601 -20.3623 -180.635
lowerback 20.9787 0.482608 0.967105
upperback 0.0768781 0.665072 -0.483403
thorax -11.7095 0.172613 -1.28104
lowerneck -19.0337 -1.4557 -1.30405
upperneck -6.70302 -2.81436 0.0263206
head 1.04639 -1.88152 0.0394409
rclavicle 1.13307e-014 4.51241e-014
rhumerus -32.7748 14.1687 -85.454
rradius 95.9129
rwrist -0.0592586
rhand -24.0202 -5.79432
rfingers 7.12502
rthumb 2.45782 -35.7599
lclavicle 1.13307e-014 4.51241e-014
lhumerus -65.07 -9.82667 87.2909
lradius 83.6543
lwrist 15.1017
lhand -29.6571 -13.7808
lfingers 7.12502
lthumb -2.98633 16.178
rfemur -20.2344 -1.98508 19.0013
rtibia 68.0107
rfoot 2.7505 -10.6923
rtoes -36.6112
lfemur -76.4045 1.44251 -26.6637
ltibia 77.2627
lfoot -29.1953 -0.938703
ltoes 6.17991
6
root 18.7523 14.6775 40.4868 -147.394 -20.8741 -181.553
lowerback 21.4697 0.204062 0.447811
upperback 0.226052 0.147195 -0.546332
thorax -11.8321 -0.047409 -0.896702
lowerneck -19.0427 -1.35291 -1.25889
upperneck -7.02408 -2.72764 0.0827017
head 0.939162 -1.85443 0.0582868
rclavicle -5.59579e-014 1.2921e-015
rhumerus -34.3182 12.6194 -86.2427
rradius 92.7993
rwrist -0.869928
rhand -24.4149 -6.11829
rfingers 7.12502
rthumb 2.07665 -36.0879
lclavicle -5.59579e-014 1.2921e-015
lhumerus -61.748 -8.91577 87.5954
lradius 82.2062
lwrist 14.7277
lhand -29.7556 -14.1486
lfingers 7.12502
lthumb -3.08143 15.8089
rfemur -23.3903 -3.12043 18.0735
rtibia 72.5748
rfoot -0.159189 -12.4541
rtoes -35.1349
lfemur -74.3532 1.22835 -27.3782
ltibia 77.1034
lfoot -30.4356 -1.06847
ltoes 5.72612
7
root 18.653 14.6928 40.1089 -147.192 -21.3774 -182.331
lowerback 21.8838 -0.0777444 0.0335575
upperback 0.339027 -0.346822 -0.583217
thorax -11.9431 -0.259395 -0.545173
lowerneck -19.0427 -1.23923 -1.18998
upperneck -7.30865 -2.6254 0.211953
head 0.843897 -1.8164 0.0968619
rclavicle -2.08724e-014 -6.21202e-014
rhumerus -35.8023 10.8505 -86.901
rradius 89.4179
rwrist -1.75218
rhand -24.7381 -6.4761
rfingers 7.12502
rthumb 1.76448 -36.4486
lclavicle -2.08724e-014 -6.21202e-014
lhumerus -58.3511 -8.06652 87.96
lradius 80.6749
lwrist 14.014
lhand -29.9037 -14.5843
lfingers 7.12502
lthumb -3.22447 15.3711
rfemur -26.7865 -4.21412 17.2889
rtibia 76.8688
rfoot -3.04475 -13.9743
rtoes -33.9054
lfemur -72.4062 1.11333 -27.9407
ltibia 77.0089
lfoot -31.6255 -1.21315
ltoes 5.1515
8
root 18.5535 14.6981 39.7317 -147.017 -21.9528 -183.007
lowerback 22.2397 -0.393001 -0.241654
upperback 0.429097 -0.845205 -0.586365
thorax -12.0411 -0.478358 -0.229881
lowerneck -19.0152 -1.12568 -1.11471
upperneck -7.5726 -2.51941 0.409998
head 0.752277 -1.7736 0.156343
rclavicle 4.1049e-014 -1.87852e-014
rhumerus -37.2371 8.90235 -87.3676
rradius 85.8004
rwrist -2.74767
rhand -25.0417 -6.85014
rfingers 7.12502
rthumb 1.47126 -36.8248
lclavicle 4.1049e-014 -1.87852e-014
lhumerus -54.9132 -7.33224 88.4062
lradius 79.1269
lwrist 12.9753
lhand -30.1257 -15.0733
lfingers 7.12502
lthumb -3.43887 14.8787
rfemur -30.3911 -5.30477 16.6664
rtibia 80.8964
rfoot -5.83395 -15.2073
rtoes -33.0884
lfemur -70.539 1.01771 -28.332
ltibia 77.018
lfoot -32.7438 -1.41096
ltoes 4.43525
9
root 18.4551 14.693 39.3545 -146.884 -22.5894 -183.587
lowerback 22.5559 -0.730981 -0.412067
upperback 0.495859 -1.34009 -0.551658
thorax -12.1388 -0.698484 0.0701935
lowerneck -18.9686 -1.02043 -1.04048
upperneck -7.79911 -2.41756 0.663842
head 0.671193 -1.7298 0.233039
rclavicle 1.87852e-014 5.65542e-014
rhumerus -38.6604 6.83277 -87.5997
rradius 82.0086
rwrist -3.86648
rhand -25.3664 -7.26254
rfingers 7.12502
rthumb 1.15769 -37.2391
lclavicle 1.87852e-014 5.65542e-014
lhumerus -51.5062 -6.75567 88.954
lradius 77.669
lwrist 11.6634
lhand -30.4127 -15.5156
lfingers 7.12502
lthumb -3.71596 14.4317
rfemur -34.1691 -6.3325 16.1804
rtibia 84.6241
rfoot -8.48734 -16.1146
rtoes -32.525
lfemur -68.7484 0.951608 -28.5559
ltibia 77.1416
lfoot -33.7691 -1.6823
ltoes 3.55703
10
root 18.3581 14.6773 38.9768 -146.797 -23.2736 -184.103
lowerback 22.829 -1.07933 -0.526267
upperback 0.550426 -1.82699 -0.477318
thorax -12.2219 -0.915216 0.38269
lowerneck -18.9043 -0.931699 -0.981504
upperneck -7.98816 -2.32833 0.958764
head 0.600804 -1.68939 0.324164
rclavicle -2.60408e-014 4.96962e-017
rhumerus -40.1079 4.70825 -87.5551
rradius 78.1328
rwrist -5.15134
rhand -25.7444 -7.71646
rfingers 7.12502
rthumb 0.792645 -37.6947
lclavicle -2.60408e-014 4.96962e-017
lhumerus -48.1997 -6.38377 89.6334
lradius 76.4329
lwrist 10.1904
lhand -30.7204 -15.8634
lfingers 7.12502
lthumb -4.01314 14.0785
rfemur -38.0903 -7.27792 15.7783
rtibia 88.021
rfoot -10.9057 -16.722
rtoes -32.256
lfemur -67.0137 0.908911 -28.6393
ltibia 77.38
lfoot -34.6916 -2.03365
ltoes 2.47357
11
root 18.2634 14.6511 38.5969 -146.78 -24.0069 -184.592
lowerback 23.0894 -1.4307 -0.637031
upperback 0.605155 -2.31039 -0.357609
thorax -12.2913 -1.128 0.745727
lowerneck -18.8419 -0.864313 -0.9498
upperneck -8.11929 -2.25515 1.27638
head 0.551006 -1.65359 0.425465
rclavicle 8.07563e-014 9.39258e-015
rhumerus -41.6317 2.60938 -87.21
rradius 74.2779
rwrist -6.62696
rhand -26.1901 -8.17497
rfingers 7.12502
rthumb 0.362101 -38.1544
lclavicle 8.07563e-014 9.39258e-015
lhumerus -45.0822 -6.27447 90.4782
lradius 75.578
lwrist 8.75095
lhand -30.9768 -16.1043
lfingers 7.12502
lthumb -4.2607 13.8328
rfemur -42.0776 -8.14358 15.4009
rtibia 91.0585
rfoot -13.099 -17.0967
rtoes -32.2524
lfemur -65.2712 0.875921 -28.6001
ltibia 77.718
lfoot -35.5211 -2.49323
ltoes 1.2109
